<svg width="1568" height="240" viewBox="0 0 1568 240" fill="none" xmlns="http://www.w3.org/2000/svg">
<g opacity="0.2">
<path d="M0.0828764 32.3033C0.0461229 30.9723 0.0215401 29.6382 0.00923531 28.3012L1.00919 28.292C1.00307 27.6265 1 26.9604 1 26.2935L1 24.1564H0L0 19.8823H1L1 15.6081H0L0 11.334H1L1 7.05988H0L0 2.78575H1L1 1.64868H1.99479L1.99479 0.648682L5.98398 0.648682V1.64868L9.97316 1.64868V0.648682L13.9623 0.648682V1.64868L17.9515 1.64868V0.648682L21.9407 0.648682V1.64868L25.9299 1.64868V0.648682L29.9191 0.648682V1.64868L33.9082 1.64868V0.648682L37.8974 0.648682V1.64868L41.8866 1.64868V0.648682L45.8758 0.648682V1.64868L49.865 1.64868V0.648682L53.8542 0.648682V1.64868L57.8433 1.64868V0.648682L61.8325 0.648682V1.64868L65.8217 1.64868V0.648682L69.8109 0.648682V1.64868L73.8001 1.64868V0.648682L77.7893 0.648682V1.64868L81.7784 1.64868V0.648682L85.7676 0.648682V1.64868L89.7568 1.64868V0.648682L93.746 0.648682V1.64868L97.7351 1.64868V0.648682L101.724 0.648682V1.64868L105.714 1.64868V0.648682L109.703 0.648682V1.64868L113.692 1.64868V0.648682L117.681 0.648682V1.64868L121.67 1.64868V0.648682L125.659 0.648682V1.64868L129.649 1.64868V0.648682L133.638 0.648682V1.64868L137.627 1.64868V0.648682L141.616 0.648682V1.64868L145.605 1.64868V0.648682L149.595 0.648682V1.64868L153.584 1.64868V0.648682L157.573 0.648682V1.64868L161.562 1.64868V0.648682L165.551 0.648682V1.64868L169.541 1.64868V0.648682L173.53 0.648682V1.64868L177.519 1.64868V0.648682L181.508 0.648682V1.64868L185.497 1.64868V0.648682L189.486 0.648682V1.64868L193.476 1.64868V0.648682L197.465 0.648682V1.64868L201.454 1.64868V0.648682L205.443 0.648682V1.64868L209.432 1.64868V0.648682L213.422 0.648682V1.64868L217.411 1.64868V0.648682L221.4 0.648682V1.64868L225.389 1.64868V0.648682L229.378 0.648682V1.64868L233.368 1.64868V0.648682L237.357 0.648682V1.64868H238.351V2.64347H239.351V6.63266H238.351V10.6218L239.351 10.6218V14.611L238.351 14.611V18.6002H239.351V22.5894H238.351V26.5786H239.351V30.5678H238.351V34.5569H239.351V38.5461H238.351V42.5353H239.351V46.5245H238.351V50.5137H239.351V54.5028H238.351V58.492H239.351V62.4812H238.351V66.4704H239.351V70.4596H238.351V74.4487H239.351V78.4379H238.351V82.4271H239.351V86.4163H238.351V90.4055H239.351V94.3947H238.351V98.3838H239.351V102.373H238.351V106.362H239.351V110.351H238.351V114.341H239.351L239.351 118.33H238.351V122.319H239.351V126.308H238.351V130.297H239.351V134.286H238.351V138.276H239.351V142.265H238.351V146.254H239.351V150.243H238.351V154.232H239.351V158.222H238.351V162.211H239.351V166.2H238.351V170.189H239.351V174.178H238.351V178.168H239.351V182.157H238.351V186.146H239.351V190.135H238.351V194.124H239.351V198.114H238.351V202.103H239.351V206.092H238.351V210.081H239.351V214.07H238.351V218.059H239.351V222.049H238.351V226.038H239.351V230.027H238.351V234.016H239.351V238.005H238.351V239H237.214V240H232.94V239H228.666V240H224.392V239H220.118V240H215.844V239H213.707C213.04 239 212.373 238.997 211.708 238.991L211.699 239.991C210.362 239.978 209.028 239.954 207.697 239.917L207.724 238.918C206.399 238.881 205.077 238.832 203.759 238.772L203.713 239.77C202.377 239.709 201.045 239.635 199.716 239.549L199.78 238.551C198.454 238.466 197.131 238.368 195.812 238.258L195.729 239.255C194.402 239.144 193.08 239.021 191.761 238.887L191.862 237.892C190.537 237.757 189.216 237.61 187.898 237.45L187.778 238.443C186.454 238.283 185.133 238.111 183.817 237.926L183.955 236.936C182.642 236.752 181.331 236.556 180.025 236.348L179.868 237.336C178.549 237.126 177.233 236.904 175.921 236.67L176.097 235.686C174.791 235.453 173.49 235.208 172.193 234.951L171.999 235.932C170.69 235.673 169.384 235.402 168.084 235.119L168.296 234.142C166.998 233.86 165.704 233.566 164.415 233.26L164.185 234.233C162.889 233.926 161.599 233.607 160.313 233.276L160.562 232.307C159.274 231.976 157.99 231.633 156.712 231.278L156.444 232.242C155.16 231.885 153.88 231.517 152.605 231.137L152.89 230.179C151.619 229.8 150.353 229.41 149.091 229.008L148.788 229.961C147.516 229.556 146.249 229.14 144.988 228.711L145.309 227.764C144.053 227.338 142.803 226.901 141.558 226.452L141.219 227.393C139.964 226.94 138.714 226.476 137.47 226.001L137.827 225.067C136.587 224.593 135.353 224.108 134.124 223.612L133.75 224.54C132.514 224.041 131.285 223.531 130.062 223.01L130.453 222.09C129.231 221.57 128.015 221.038 126.804 220.496L126.395 221.409C125.179 220.864 123.969 220.308 122.766 219.741L123.192 218.836C121.991 218.271 120.797 217.694 119.609 217.107L119.166 218.004C117.97 217.413 116.781 216.812 115.598 216.199L116.058 215.311C114.881 214.702 113.71 214.082 112.546 213.451L112.069 214.331C110.897 213.695 109.73 213.049 108.571 212.393L109.063 211.523C107.909 210.869 106.761 210.205 105.621 209.531L105.112 210.391C103.965 209.713 102.825 209.025 101.691 208.326L102.216 207.475C101.087 206.778 99.9642 206.072 98.8488 205.355L98.3081 206.196C97.1874 205.475 96.074 204.745 94.9678 204.004L95.5241 203.173C94.4216 202.435 93.3263 201.687 92.2385 200.929L91.6667 201.749C90.5733 200.988 89.4874 200.216 88.4091 199.434L88.996 198.624C87.9224 197.846 86.8564 197.058 85.798 196.26L85.1961 197.059C84.1317 196.257 83.0751 195.444 82.0263 194.623L82.6429 193.836C81.599 193.018 80.5629 192.191 79.5348 191.354L78.9036 192.129C77.8701 191.288 76.8446 190.438 75.8273 189.578L76.4729 188.814C75.4599 187.958 74.4551 187.092 73.4586 186.218L72.7989 186.969C71.7977 186.091 70.8047 185.203 69.8202 184.306L70.4937 183.566C69.5133 182.673 68.5414 181.771 67.5779 180.86L66.8908 181.586C65.9228 180.671 64.9634 179.746 64.0127 178.813L64.7132 178.1C63.7669 177.171 62.8293 176.233 61.9004 175.287L61.1867 175.987C60.2535 175.037 59.3291 174.077 58.4137 173.109L59.1402 172.422C58.2291 171.459 57.3268 170.487 56.4336 169.506L55.6944 170.18C54.7973 169.195 53.9093 168.202 53.0306 167.201L53.7822 166.541C52.9075 165.545 52.042 164.54 51.1859 163.527L50.4221 164.173C49.5622 163.155 48.7117 162.13 47.8705 161.096L48.6461 160.465C47.8094 159.437 46.9821 158.401 46.1643 157.357L45.3771 157.974C44.5555 156.925 43.7435 155.868 42.9412 154.804L43.7397 154.202C42.942 153.144 42.1539 152.077 41.3756 151.004L40.566 151.591C39.7843 150.512 39.0124 149.427 38.2505 148.333L39.0709 147.761C38.3128 146.674 37.5647 145.578 36.8265 144.476L35.9956 145.032C35.255 143.926 34.5245 142.812 33.8041 141.692L34.6454 141.151C33.9284 140.036 33.2216 138.913 32.525 137.784L31.6739 138.309C30.9751 137.175 30.2866 136.035 29.6085 134.888L30.4693 134.379C29.795 133.238 29.1309 132.091 28.4774 130.937L27.6072 131.429C26.9507 130.27 26.3048 129.103 25.6694 127.93L26.5487 127.454C25.9181 126.29 25.298 125.119 24.6886 123.942L23.8005 124.402C23.1882 123.219 22.5867 122.03 21.996 120.834L22.8925 120.391C22.3055 119.203 21.7293 118.009 21.164 116.808L20.2593 117.234C19.6924 116.031 19.1364 114.82 18.5914 113.604L19.5039 113.195C18.9615 111.985 18.43 110.769 17.9097 109.547L16.9896 109.938C16.4687 108.715 15.9589 107.485 15.4602 106.25L16.3875 105.876C15.8915 104.647 15.4066 103.413 14.933 102.173L13.9989 102.53C13.5236 101.286 13.0597 100.036 12.6071 98.7807L13.5479 98.4415C13.0991 97.1967 12.6616 95.9465 12.2355 94.691L11.2885 95.0123C10.8604 93.7509 10.4438 92.4841 10.0387 91.2122L10.9916 90.9088C10.5899 89.6474 10.1996 88.381 9.82092 87.1096L8.86252 87.395C8.48282 86.1202 8.11469 84.8403 7.75826 83.5556L8.72186 83.2883C8.36711 82.0097 8.02401 80.7262 7.69268 79.438L6.7242 79.6871C6.39345 78.4012 6.07437 77.1106 5.76707 75.8154L6.74006 75.5846C6.43421 74.2955 6.14009 73.0019 5.85782 71.7039L4.88066 71.9164C4.59779 70.6156 4.32676 69.3104 4.0677 68.0009L5.04869 67.8068C4.7921 66.5098 4.54729 65.2085 4.3144 63.9031L3.32995 64.0787C3.09595 62.7671 2.87392 61.4514 2.66398 60.1317L3.65156 59.9746C3.44378 58.6685 3.24789 57.3584 3.06401 56.0445L2.07366 56.1831C1.88942 54.8666 1.71717 53.5463 1.55703 52.2223L2.5498 52.1022C2.39041 50.7844 2.24307 49.4628 2.10789 48.1376L1.11305 48.2391C0.978498 46.92 0.85594 45.5974 0.74549 44.2714L1.74204 44.1884C1.63213 42.8688 1.53426 41.5458 1.44855 40.2194L0.45063 40.2839C0.36475 38.955 0.291017 37.6227 0.229542 36.2872L1.22848 36.2413C1.16778 34.9225 1.11908 33.6007 1.0825 32.2757L0.0828764 32.3033Z" stroke="#A3A3A3" stroke-opacity="0.3" stroke-width="2" stroke-dasharray="4 4"/>
<path fill-rule="evenodd" clip-rule="evenodd" d="M502.054 240L262.703 240V0.648666H288.348C406.374 0.648666 502.054 96.3284 502.054 214.355V240Z" fill="#A3A3A3" fill-opacity="0.2"/>
<path fill-rule="evenodd" clip-rule="evenodd" d="M1068.32 0.648682L1304.76 0.648682V240H1279.42C1162.84 240 1068.32 144.32 1068.32 26.2935V0.648682Z" fill="#A3A3A3" fill-opacity="0.2"/>
<path fill-rule="evenodd" clip-rule="evenodd" d="M1567.46 240L1331.03 240V0.648666H1356.36C1472.95 0.648666 1567.46 96.3284 1567.46 214.355V240Z" fill="#A3A3A3" fill-opacity="0.2"/>
<path d="M773.433 208.382C773.469 209.705 773.493 211.031 773.505 212.36L771.005 212.382C771.011 213.039 771.014 213.697 771.014 214.355V216.492H773.514V220.766H771.014V225.041H773.514V229.315H771.014V233.589H773.514V237.5H771.543V237.863H771.014V240H767.603V237.5H763.662V240H759.722V237.5H755.781V240H751.841V237.5H747.9V240H743.959V237.5H740.019V240H736.078V237.5H732.138V240H728.197V237.5H724.257V240H720.316V237.5H716.376V240H712.435V237.5H708.495V240H704.554V237.5H700.614V240H696.673V237.5H692.733V240H688.792V237.5H684.851V240H680.911V237.5H676.97V240H673.03V237.5H669.089V240H665.149V237.5H661.208V240L657.268 240V237.5L653.327 237.5V240H649.387V237.5H645.446V240H641.505V237.5H637.565V240H633.624V237.5H629.684V240H625.743V237.5H621.803V240H617.862V237.5H613.922V240H609.981V237.5H606.041V240H602.1V237.5H598.16V240H594.219V237.5H590.278V240H586.338V237.5H582.397V240H578.457V237.5H574.516V240H570.576V237.5H566.635V240H562.695V237.5H558.754V240H554.814V237.5H550.873V240H546.932V237.5H542.992V240H539.581V238.005H539.051V237.5H537.081V234.016H539.581V230.027H537.081V226.038H539.581V222.048H537.081V218.059H539.581V214.07H537.081V210.081H539.581V206.092H537.081V202.103H539.581V198.113H537.081V194.124H539.581V190.135H537.081V186.146H539.581V182.157H537.081V178.167H539.581V174.178H537.081V170.189H539.581V166.2H537.081V162.211H539.581V158.222H537.081V154.232H539.581V150.243H537.081V146.254H539.581V142.265H537.081V138.276H539.581V134.286H537.081V130.297H539.581V126.308H537.081V122.319H539.581V118.33H537.081V114.341H539.581V110.351H537.081V106.362H539.581V102.373H537.081V98.3838H539.581V94.3946H537.081V90.4054H539.581V86.4162H537.081V82.427H539.581V78.4379H537.081V74.4487H539.581V70.4595H537.081V66.4703H539.581V62.4811H537.081V58.4919H539.581V54.5027H537.081V50.5135H539.581V46.5243H537.081V42.5352H539.581V38.546H537.081V34.5568H539.581V30.5676H537.081V26.5784H539.581V22.5892H537.081V18.6H539.581V14.6108H537.081V10.6216H539.581V6.63245H537.081V3.14867H539.192V2.64326H539.581V0.648666H543.414V3.14867H547.636V0.648666H551.858V3.14867H556.08V0.648666H560.302V3.14867H562.413C563.071 3.14867 563.728 3.15175 564.385 3.1579L564.408 0.65802C565.737 0.670471 567.063 0.695358 568.386 0.732559L568.316 3.23157C569.623 3.26834 570.927 3.31728 572.228 3.37828L572.345 0.881027C573.673 0.943268 574.997 1.01791 576.318 1.10486L576.154 3.59947C577.462 3.68559 578.767 3.78394 580.069 3.89438L580.28 1.40332C581.598 1.51515 582.913 1.63925 584.224 1.7755L583.966 4.2621C585.273 4.39792 586.576 4.54594 587.876 4.70605L588.181 2.22482C589.497 2.38689 590.809 2.5612 592.116 2.74765L591.764 5.22263C593.06 5.40741 594.352 5.60425 595.641 5.81303L596.04 3.34523C597.351 3.55765 598.658 3.78229 599.961 4.01901L599.514 6.47873C600.801 6.71262 602.083 6.95845 603.362 7.21611L603.856 4.76538C605.157 5.02754 606.453 5.3018 607.746 5.58804L607.205 8.02887C608.484 8.31224 609.759 8.6075 611.029 8.91451L611.617 6.48448C612.903 6.79539 614.185 7.11823 615.462 7.45285L614.828 9.87122C616.097 10.2037 617.362 10.548 618.621 10.904L619.301 8.49821C620.576 8.85852 621.846 9.23064 623.111 9.61444L622.385 12.0068C623.638 12.3869 624.886 12.7785 626.129 13.1817L626.9 10.8037C628.162 11.213 629.418 11.634 630.669 12.0665L629.852 14.4293C631.088 14.8566 632.319 15.2953 633.545 15.7454L634.407 13.3986C635.652 13.8559 636.891 14.3246 638.125 14.8048L637.219 17.1346C638.439 17.6093 639.653 18.0953 640.862 18.5925L641.813 16.2803C643.038 16.784 644.257 17.2989 645.47 17.825L644.475 20.1186C645.677 20.6399 646.873 21.1722 648.064 21.7156L649.102 19.4414C650.306 19.9913 651.505 20.5523 652.698 21.1244L651.616 23.3784C652.797 23.9447 653.971 24.5219 655.139 25.1099L656.263 22.8767C657.447 23.4724 658.624 24.079 659.795 24.6964L658.629 26.9078C659.786 27.5179 660.937 28.1387 662.081 28.77L663.289 26.5811C664.449 27.2214 665.603 27.8725 666.751 28.5341L665.502 30.6998C666.635 31.3535 667.762 32.0177 668.883 32.6922L670.172 30.5505C671.307 31.2338 672.435 31.9275 673.556 32.6315L672.226 34.7485C673.334 35.4448 674.436 36.1513 675.531 36.868L676.9 34.7764C678.008 35.5016 679.108 36.237 680.201 36.9825L678.793 39.048C679.875 39.7856 680.949 40.5331 682.016 41.2906L683.463 39.2519C684.543 40.0184 685.616 40.795 686.681 41.5813L685.196 43.5925C686.248 44.3698 687.294 45.1568 688.331 45.9535L689.854 43.9705C690.904 44.777 691.947 45.5933 692.982 46.4191L691.423 48.3733C692.446 49.1894 693.461 50.015 694.468 50.85L696.064 48.9253C697.083 49.7704 698.095 50.625 699.098 51.4889L697.467 53.3835C698.459 54.2373 699.442 55.1003 700.418 55.9725L702.084 54.1086C703.071 54.9911 704.05 55.8828 705.021 56.7835L703.32 58.616C704.279 59.5061 705.23 60.4051 706.173 61.313L707.907 59.5124C708.861 60.4311 709.806 61.3586 710.742 62.295L708.975 64.063C709.9 64.988 710.817 65.9218 711.725 66.8641L713.525 65.1292C714.444 66.0825 715.354 67.0445 716.255 68.0149L714.423 69.716C715.313 70.675 716.195 71.6425 717.068 72.6183L718.931 70.9515C719.814 71.9379 720.687 72.9326 721.551 73.9357L719.658 75.5676C720.512 76.5589 721.357 77.5584 722.193 78.5659L724.117 76.9693C724.962 77.9879 725.798 79.0146 726.625 80.0493L724.672 81.6099C725.489 82.6318 726.296 83.6616 727.094 84.6991L729.076 83.175C729.883 84.2248 730.681 85.2824 731.469 86.3477L729.46 87.8348C730.237 88.8858 731.006 89.9444 731.764 91.0104L733.801 89.5607C734.569 90.6392 735.327 91.7253 736.075 92.8187L734.012 94.2304C734.75 95.3101 735.479 96.3972 736.199 97.4914L738.288 96.1183C739.014 97.2238 739.731 98.3366 740.438 99.4565L738.324 100.791C739.022 101.898 739.711 103.011 740.389 104.132L742.528 102.837C743.213 103.969 743.888 105.107 744.553 106.252L742.39 107.507C743.047 108.639 743.693 109.777 744.329 110.921L746.515 109.706C747.158 110.864 747.791 112.028 748.413 113.198L746.206 114.372C746.819 115.526 747.423 116.686 748.016 117.852L750.244 116.72C750.844 117.9 751.433 119.087 752.012 120.28L749.763 121.371C750.333 122.547 750.893 123.729 751.443 124.918L753.712 123.868C754.267 125.069 754.811 126.276 755.345 127.488L753.057 128.495C753.584 129.694 754.1 130.898 754.606 132.108L756.913 131.144C757.422 132.363 757.921 133.587 758.409 134.818L756.084 135.739C756.566 136.955 757.037 138.176 757.497 139.403L759.838 138.525C760.303 139.764 760.756 141.009 761.199 142.259L758.842 143.093C759.278 144.324 759.703 145.561 760.116 146.802L762.488 146.012C762.907 147.268 763.314 148.53 763.71 149.797L761.324 150.543C761.714 151.789 762.092 153.041 762.46 154.297L764.859 153.595C765.23 154.864 765.59 156.138 765.938 157.417L763.526 158.074C763.87 159.337 764.203 160.605 764.525 161.878L766.948 161.266C767.272 162.546 767.583 163.83 767.883 165.119L765.449 165.686C765.745 166.959 766.031 168.238 766.304 169.52L768.749 168.998C769.025 170.292 769.29 171.59 769.543 172.892L767.089 173.368C767.338 174.649 767.575 175.935 767.801 177.224L770.263 176.793C770.492 178.097 770.709 179.406 770.914 180.719L768.444 181.104C768.645 182.394 768.835 183.687 769.013 184.984L771.49 184.644C771.67 185.953 771.838 187.265 771.994 188.582L769.511 188.877C769.666 190.178 769.809 191.483 769.94 192.791L772.427 192.542C772.559 193.853 772.678 195.168 772.786 196.486L770.294 196.689C770.401 197.992 770.496 199.298 770.579 200.608L773.074 200.45C773.158 201.771 773.23 203.095 773.29 204.422L770.792 204.535C770.851 205.837 770.898 207.142 770.934 208.45L773.433 208.382Z" stroke="#A3A3A3" stroke-opacity="0.3" stroke-width="5" stroke-dasharray="4 4"/>
<path fill-rule="evenodd" clip-rule="evenodd" d="M802.703 240L1042.05 240V0.648666H1016.41C898.382 0.648666 802.703 96.3284 802.703 214.355V240Z" fill="#A3A3A3" fill-opacity="0.2"/>
</g>
</svg>
