<svg width="1043" height="517" viewBox="0 0 1043 517" fill="none" xmlns="http://www.w3.org/2000/svg">
<g opacity="0.2">
<path fill-rule="evenodd" clip-rule="evenodd" d="M802.703 277.297L1042.05 277.297V516.649H1016.41C898.383 516.649 802.703 420.969 802.703 302.942V277.297Z" fill="#A3A3A3" fill-opacity="0.2"/>
<path fill-rule="evenodd" clip-rule="evenodd" d="M779.352 277.297L540 277.297V516.649H565.645C683.672 516.649 779.352 420.969 779.352 302.942V277.297Z" fill="#A3A3A3" fill-opacity="0.2"/>
<path fill-rule="evenodd" clip-rule="evenodd" d="M504.973 516.649H268.54V277.297H293.873C410.46 277.297 504.973 372.977 504.973 491.004V516.649Z" fill="#A3A3A3" fill-opacity="0.2"/>
<path fill-rule="evenodd" clip-rule="evenodd" d="M6.10352e-05 516.649H239.351L239.351 277.297H213.707C95.6797 277.297 6.10352e-05 372.977 6.10352e-05 491.004L6.10352e-05 516.649Z" fill="#A3A3A3" fill-opacity="0.2"/>
<path fill-rule="evenodd" clip-rule="evenodd" d="M0 0L239.351 0L239.351 239.351H213.707C95.6797 239.351 0 143.672 0 25.6448L0 0Z" fill="#A3A3A3" fill-opacity="0.2"/>
<path fill-rule="evenodd" clip-rule="evenodd" d="M502.054 239.351L262.703 239.351V-1.52588e-05H288.348C406.374 -1.52588e-05 502.054 95.6797 502.054 213.707V239.351Z" fill="#A3A3A3" fill-opacity="0.2"/>
<path fill-rule="evenodd" clip-rule="evenodd" d="M773.513 239.351L537.081 239.351V-1.52588e-05H562.413C679.001 -1.52588e-05 773.513 95.6797 773.513 213.707V239.351Z" fill="#A3A3A3" fill-opacity="0.2"/>
<path d="M802.786 207.697C802.749 209.028 802.724 210.362 802.712 211.699L805.212 211.722C805.206 212.383 805.203 213.044 805.203 213.707V215.844H802.703V220.118H805.203V224.392H802.703V228.666H805.203V232.94H802.703V236.851H804.698V237.214H805.203V239.351H808.687V236.851H812.676V239.351H816.665V236.851H820.654V239.351H824.644V236.851H828.633V239.351H832.622V236.851H836.611V239.351H840.6V236.851H844.589V239.351H848.579V236.851H852.568V239.351H856.557V236.851H860.546V239.351H864.535V236.851H868.525V239.351H872.514V236.851H876.503V239.351H880.492V236.851H884.481V239.351H888.47V236.851H892.46V239.351H896.449V236.851H900.438V239.351H904.427V236.851H908.416V239.351H912.406V236.851H916.395V239.351L920.384 239.351V236.851L924.373 236.851V239.351H928.362V236.851H932.352V239.351H936.341V236.851H940.33V239.351H944.319V236.851H948.308V239.351H952.297V236.851H956.287V239.351H960.276V236.851H964.265V239.351H968.254V236.851H972.243V239.351H976.233V236.851H980.222V239.351H984.211V236.851H988.2V239.351H992.189V236.851H996.179V239.351H1000.17V236.851H1004.16V239.351H1008.15V236.851H1012.14V239.351H1016.12V236.851H1020.11V239.351H1024.1V236.851H1028.09V239.351H1032.08V236.851H1036.07V239.351H1039.55V237.357H1040.06V236.851H1042.05V233.367H1039.55V229.378H1042.05V225.389H1039.55V221.4H1042.05V217.411H1039.55V213.421H1042.05V209.432H1039.55V205.443H1042.05V201.454H1039.55V197.465H1042.05V193.476H1039.55V189.486H1042.05V185.497H1039.55V181.508H1042.05V177.519H1039.55V173.53H1042.05V169.54H1039.55V165.551H1042.05V161.562H1039.55V157.573H1042.05V153.584H1039.55V149.595H1042.05V145.605H1039.55V141.616H1042.05V137.627H1039.55V133.638H1042.05V129.649H1039.55V125.659H1042.05V121.67H1039.55V117.681H1042.05V113.692H1039.55V109.703H1042.05V105.714H1039.55V101.724H1042.05V97.7351H1039.55V93.7459H1042.05V89.7567H1039.55V85.7675H1042.05V81.7784H1039.55V77.7892H1042.05V73.8H1039.55V69.8108H1042.05V65.8216H1039.55V61.8324H1042.05V57.8432H1039.55V53.854H1042.05V49.8648H1039.55V45.8757H1042.05V41.8865H1039.55V37.8973H1042.05V33.9081H1039.55V29.9189H1042.05V25.9297H1039.55V21.9405H1042.05V17.9513H1039.55V13.9621H1042.05V9.97296H1039.55V5.98376H1042.05V2.49998H1039.92V1.99458H1039.55V-1.52588e-05H1035.64V2.49998H1031.37V-1.52588e-05H1027.09V2.49998H1022.82V-1.52588e-05H1018.55V2.49998H1016.41C1015.75 2.49998 1015.09 2.50304 1014.42 2.50911L1014.4 0.00921631C1013.06 0.0215149 1011.73 0.0461121 1010.4 0.0828705L1010.47 2.58191C1009.15 2.61824 1007.84 2.66661 1006.53 2.72688L1006.42 0.229538C1005.08 0.291016 1003.75 0.364746 1002.42 0.450623L1002.58 2.94542C1001.26 3.03053 999.949 3.12772 998.639 3.23686L998.431 0.745483C997.105 0.855942 995.783 0.9785 994.464 1.11305L994.717 3.60014C993.402 3.73437 992.089 3.88068 990.781 4.03894L990.48 1.55704C989.156 1.71718 987.836 1.88942 986.52 2.07365L986.866 4.54953C985.562 4.73212 984.261 4.92662 982.964 5.13293L982.571 2.66397C981.251 2.87392 979.936 3.09595 978.624 3.32994L979.063 5.79108C977.767 6.02232 976.475 6.2654 975.187 6.52017L974.702 4.0677C973.392 4.32677 972.087 4.59779 970.786 4.88066L971.318 7.32356C970.029 7.60382 968.744 7.89586 967.465 8.19954L966.887 5.76706C965.592 6.07436 964.302 6.39345 963.016 6.7242L963.638 9.14539C962.359 9.47437 961.085 9.81503 959.816 10.1673L959.147 7.75826C957.863 8.11469 956.583 8.48282 955.308 8.86253L956.021 11.2585C954.759 11.6345 953.502 12.022 952.249 12.4208L951.491 10.0387C950.219 10.4438 948.952 10.8604 947.69 11.2885L948.494 13.6559C947.247 14.079 946.006 14.5134 944.77 14.959L943.922 12.6071C942.667 13.0597 941.417 13.5236 940.173 13.9989L941.065 16.3343C939.834 16.8045 938.608 17.286 937.388 17.7785L936.452 15.4603C935.217 15.9589 933.988 16.4687 932.764 16.9896L933.744 19.2898C932.53 19.8065 931.323 20.3342 930.121 20.8727L929.098 18.5914C927.882 19.1364 926.672 19.6924 925.468 20.2594L926.534 22.5211C925.342 23.0824 924.156 23.6545 922.976 24.2373L921.869 21.996C920.673 22.5867 919.484 23.1883 918.301 23.8006L919.451 26.0207C918.282 26.6258 917.119 27.2415 915.963 27.8677L914.772 25.6695C913.599 26.3048 912.433 26.9507 911.274 27.6072L912.505 29.7828C911.359 30.4317 910.22 31.091 909.087 31.7606L907.815 29.6085C906.668 30.2866 905.527 30.9751 904.394 31.6739L905.706 33.8018C904.585 34.4935 903.47 35.1953 902.363 35.9072L901.011 33.8042C899.89 34.5245 898.777 35.255 897.671 35.9956L899.061 38.073C897.967 38.806 896.879 39.5489 895.799 40.3016L894.37 38.2505C893.276 39.0125 892.19 39.7843 891.112 40.5661L892.579 42.5901C891.513 43.363 890.455 44.1455 889.404 44.9376L887.899 42.9412C886.835 43.7435 885.778 44.5555 884.729 45.3771L886.271 47.3452C885.234 48.1572 884.205 48.9787 883.185 49.8096L881.606 47.8706C880.573 48.7117 879.548 49.5623 878.53 50.4222L880.144 52.3315C879.138 53.1817 878.14 54.0411 877.151 54.9096L875.502 53.0307C874.501 53.9094 873.508 54.7974 872.523 55.6944L874.207 57.5424C873.233 58.4294 872.268 59.3253 871.311 60.2301L869.594 58.4138C868.626 59.3292 867.666 60.2536 866.716 61.1868L868.467 62.9709C867.527 63.8933 866.596 64.8244 865.674 65.7641L863.89 64.0128C862.956 64.9635 862.032 65.9229 861.117 66.8909L862.933 68.6087C862.028 69.5654 861.132 70.5305 860.245 71.504L858.397 69.8203C857.5 70.8048 856.612 71.7978 855.733 72.799L857.612 74.4481C856.744 75.4377 855.884 76.4355 855.034 77.4413L853.125 75.8274C852.265 76.8447 851.415 77.8702 850.573 78.9037L852.512 80.4818C851.682 81.5027 850.86 82.5315 850.048 83.5681L848.08 82.0263C847.258 83.0751 846.446 84.1318 845.644 85.1962L847.64 86.701C846.848 87.7519 846.066 88.8105 845.293 89.8765L843.269 88.4092C842.487 89.4875 841.715 90.5734 840.953 91.6668L843.004 93.0962C842.252 94.1763 841.509 95.2639 840.776 96.3587L838.698 94.9679C837.958 96.0741 837.227 97.1875 836.507 98.3082L838.61 99.66C837.898 100.768 837.196 101.882 836.505 103.004L834.377 101.691C833.678 102.825 832.989 103.965 832.311 105.112L834.463 106.384C833.794 107.517 833.135 108.656 832.486 109.802L830.31 108.571C829.654 109.73 829.008 110.897 828.372 112.07L830.571 113.26C829.944 114.416 829.329 115.579 828.724 116.748L826.503 115.598C825.891 116.781 825.29 117.97 824.699 119.166L826.94 120.273C826.357 121.453 825.785 122.639 825.224 123.831L822.962 122.766C822.395 123.97 821.839 125.18 821.294 126.396L823.576 127.418C823.037 128.62 822.509 129.827 821.993 131.041L819.692 130.062C819.172 131.285 818.662 132.515 818.163 133.75L820.481 134.686C819.989 135.906 819.507 137.131 819.037 138.362L816.702 137.47C816.226 138.714 815.763 139.964 815.31 141.219L817.662 142.067C817.216 143.303 816.782 144.545 816.359 145.791L813.991 144.988C813.563 146.249 813.147 147.516 812.742 148.788L815.124 149.546C814.725 150.799 814.337 152.056 813.961 153.319L811.565 152.605C811.186 153.88 810.818 155.16 810.461 156.444L812.87 157.113C812.518 158.382 812.177 159.657 811.848 160.936L809.427 160.313C809.096 161.599 808.777 162.889 808.47 164.185L810.902 164.762C810.599 166.042 810.307 167.326 810.026 168.615L807.584 168.084C807.301 169.384 807.03 170.69 806.771 171.999L809.223 172.484C808.968 173.772 808.725 175.064 808.494 176.36L806.033 175.921C805.799 177.233 805.577 178.549 805.367 179.868L807.836 180.261C807.63 181.558 807.435 182.859 807.252 184.163L804.777 183.817C804.592 185.133 804.42 186.454 804.26 187.778L806.742 188.078C806.584 189.386 806.437 190.699 806.303 192.015L803.816 191.761C803.681 193.08 803.559 194.403 803.448 195.729L805.94 195.936C805.831 197.246 805.733 198.56 805.648 199.877L803.154 199.716C803.068 201.045 802.994 202.377 802.932 203.713L805.43 203.828C805.369 205.137 805.321 206.45 805.285 207.766L802.786 207.697Z" stroke="#A3A3A3" stroke-opacity="0.3" stroke-width="5" stroke-dasharray="4 4"/>
</g>
</svg>
