<svg width="180" height="180" viewBox="0 0 180 180" fill="none" xmlns="http://www.w3.org/2000/svg">
<g id="icons8-angularjs">
<path id="Vector" d="M89.747 7.20707C89.3514 7.20887 88.9525 7.27435 88.5727 7.40395L13.2188 33.6305C11.6204 34.1849 10.6194 35.7813 10.8282 37.4625L22.7392 135.106C22.8796 136.261 23.5624 137.279 24.5884 137.834L88.1227 172.364C88.6555 172.656 89.248 172.8 89.8384 172.8C90.4324 172.8 91.0317 172.652 91.5681 172.357L155.426 137.356C156.441 136.798 157.131 135.783 157.268 134.634L169.172 36.9985C169.381 35.3101 168.37 33.6996 166.753 33.1524L90.9141 7.38988C90.5361 7.26388 90.1425 7.20527 89.747 7.20707ZM90.0001 25.2L136.8 126H120.825L110.813 104.428H69.1876L59.1751 126H43.2001L90.0001 25.2ZM90.0001 59.4L75.8884 90H104.112L90.0001 59.4Z" fill="#A5A5A5"/>
</g>
</svg>
