<svg width="180" height="180" viewBox="0 0 180 180" fill="none" xmlns="http://www.w3.org/2000/svg">
<g id="icons8-typescript">
<path id="Vector" d="M162.002 14.4001H18.0023C16.0115 14.4001 14.4023 16.0129 14.4023 18.0001V162C14.4023 163.987 16.0115 165.6 18.0023 165.6H162.002C163.993 165.6 165.602 163.987 165.602 162V18.0001C165.602 16.0129 163.993 14.4001 162.002 14.4001ZM104.402 95.2021H86.4023V151.2H72.0023V95.2021H54.0023V82.8001H104.402V95.2021ZM108.438 148.003V133.035C108.438 133.035 116.614 139.198 126.424 139.198C136.234 139.198 135.856 132.783 135.856 131.904C135.856 122.595 108.06 122.595 108.06 101.97C108.06 73.9225 148.56 84.9889 148.56 84.9889L148.056 98.3233C148.056 98.3233 141.263 93.7945 133.591 93.7945C125.92 93.7945 123.151 97.4413 123.151 101.34C123.151 111.402 151.199 110.398 151.199 130.648C151.202 161.838 108.438 148.003 108.438 148.003Z" fill="#A5A5A5"/>
</g>
</svg>
