<svg width="90" height="89" viewBox="0 0 90 89" fill="none" xmlns="http://www.w3.org/2000/svg">
<g id="arrow--up">
<path id="Union" fill-rule="evenodd" clip-rule="evenodd" d="M17.0989 35.2411C14.8725 37.3543 14.7241 40.9133 16.8021 43.2118C18.8801 45.5104 22.4052 45.6587 24.6688 43.5455L39.4375 29.7057V73.612C39.4375 76.5408 41.9237 78.9505 45.0035 78.9505V78.9135C48.0834 78.9135 50.5696 76.5408 50.5696 73.5749V29.7155L65.3009 43.5455C67.5644 45.6587 71.0896 45.5104 73.1676 43.2118C75.2827 40.9133 75.1342 37.3543 72.8707 35.2411L49.4648 13.2955C48.7537 12.382 47.7451 11.6915 46.5755 11.3605C45.3174 10.9791 43.9504 11.061 42.7389 11.606C41.9223 11.9566 41.2101 12.4905 40.6582 13.1517L17.0989 35.2411Z" fill="#4DD6C3"/>
</g>
</svg>
