<svg xmlns="http://www.w3.org/2000/svg" width="25" height="28" viewBox="0 0 25 28" fill="none">
  <path d="M12.9306 0.93434H12.6966C11.7202 0.934339 10.9702 1.67972 10.9702 2.56976L10.9702 20.1151V21.2703L10.128 20.4796L4.23491 14.9471C4.23471 14.9469 4.2345 14.9467 4.2343 14.9465C3.53297 14.2924 2.44402 14.3384 1.80034 15.0504L1.79737 15.0537C1.13779 15.7704 1.18435 16.8797 1.88939 17.5379L1.89018 17.5386L11.2587 26.3226L11.2866 26.3488L11.3102 26.3789C11.5245 26.6524 11.8277 26.8627 12.1814 26.9679L12.1902 26.9705L12.1902 26.9706C12.5772 27.0935 12.9996 27.0734 13.3747 26.9108L13.3826 26.9073L13.3827 26.9074C13.6488 26.7975 13.8792 26.626 14.0548 26.4139L14.0749 26.3896L14.0979 26.3681L23.5127 17.5407C23.5131 17.5404 23.5135 17.54 23.5139 17.5396C24.2067 16.8808 24.2533 15.7678 23.6047 15.0504C22.9611 14.3384 21.8722 14.2924 21.1709 14.9465L12.9306 0.93434ZM12.9306 0.93434C13.7886 1.04416 14.423 1.7492 14.423 2.55493L14.423 20.1161V21.2699L15.2649 20.4809L21.1702 14.9471L12.9306 0.93434Z" stroke="#4DD6C3"/>
</svg>