<svg width="803" height="803" viewBox="0 0 803 803" fill="none" xmlns="http://www.w3.org/2000/svg">
<path d="M526.789 125.516C517.405 121.243 507.04 119.124 496.721 119.626L223.953 132.397C203.088 133.354 185.178 144.814 177.248 162.232L73.9451 389.122C66.0151 406.539 69.1303 427.571 82.1087 443.938L251.573 658.057C257.97 666.17 266.373 672.596 275.758 676.869C285.142 681.141 295.506 683.26 305.826 682.758L578.572 670.034C599.459 669.03 617.368 657.57 625.298 640.153L728.601 413.263C736.531 395.846 733.416 374.813 720.438 358.447L550.974 144.328C544.577 136.215 536.173 129.788 526.789 125.516Z" fill="#188181"/>
<mask id="mask0_1_29" style="mask-type:alpha" maskUnits="userSpaceOnUse" x="69" y="119" width="664" height="564">
<path d="M526.789 125.516C517.405 121.243 507.04 119.124 496.721 119.626L223.953 132.397C203.088 133.354 185.178 144.814 177.248 162.232L73.9451 389.122C66.0151 406.539 69.1303 427.571 82.1087 443.938L251.573 658.057C257.97 666.17 266.373 672.596 275.758 676.869C285.142 681.141 295.506 683.26 305.826 682.758L578.572 670.034C599.459 669.03 617.368 657.57 625.298 640.153L728.601 413.263C736.531 395.846 733.416 374.813 720.438 358.447L550.974 144.328C544.577 136.215 536.173 129.788 526.789 125.516Z" fill="#286494"/>
</mask>
<g mask="url(#mask0_1_29)">
<path d="M629.429 -99.9144C620.045 -104.187 609.68 -106.306 599.361 -105.804L326.594 -93.033C305.728 -92.0759 287.818 -80.6156 279.888 -63.1986L176.585 163.691C168.655 181.109 171.77 202.141 184.749 218.508L354.213 432.627C360.61 440.74 369.014 447.166 378.398 451.439C387.782 455.711 398.146 457.83 408.466 457.328L681.212 444.604C702.099 443.6 720.008 432.14 727.938 414.723L831.241 187.833C839.171 170.416 836.056 149.383 823.078 133.017L653.614 -81.1024C647.217 -89.2155 638.813 -95.6418 629.429 -99.9144Z" fill="#25606C"/>
</g>
</svg>
