<svg width="181" height="180" viewBox="0 0 181 180" fill="none" xmlns="http://www.w3.org/2000/svg">
<g id="icons8-html-5">
<path id="Vector" d="M163.318 8.36714C162.643 7.62183 161.673 7.19995 160.66 7.19995H20.007C18.9945 7.19995 18.0241 7.62183 17.3491 8.36714C16.6601 9.11245 16.3226 10.1109 16.421 11.1234L29.0913 153.056C29.2179 154.547 30.2585 155.784 31.6929 156.206L89.3351 172.659C89.6445 172.758 89.982 172.8 90.3195 172.8C90.657 172.8 90.9804 172.758 91.3038 172.659L148.988 156.206C150.423 155.784 151.449 154.547 151.59 153.056L164.246 11.1234C164.344 10.1109 164.007 9.11245 163.318 8.36714ZM132.985 57.3046H65.2601L66.8773 75.6281H131.354L126.516 129.783L90.3054 140.723L89.9538 140.611L54.1648 129.769L52.2101 107.705H69.746L70.5054 116.269L90.5163 120.459L110.162 116.269L112.257 93.0937H50.9023L46.1351 39.7968H134.546L132.985 57.3046Z" fill="#2CA2FF"/>
</g>
</svg>
