<svg width="32" height="32" viewBox="0 0 32 32" fill="none" xmlns="http://www.w3.org/2000/svg">
<g id="icon">
<path id="Animation Onion Icon" fill-rule="evenodd" clip-rule="evenodd" d="M24.2921 20.2908C27.2878 18.7373 29.3346 15.6077 29.3346 12.0001C29.3346 6.84542 25.156 2.66675 20.0013 2.66675C16.3937 2.66675 13.2641 4.71359 11.7105 7.70932C9.99941 8.5967 8.59785 9.99827 7.7105 11.7094C4.71479 13.263 2.66797 16.3925 2.66797 20.0002C2.66797 25.1548 6.84664 29.3335 12.0013 29.3335C15.6089 29.3335 18.7385 27.2866 20.2921 24.2909C19.3166 24.7968 18.2405 25.1355 17.1017 25.2693C15.7819 26.5471 13.9834 27.3335 12.0013 27.3335C7.95121 27.3335 4.66797 24.0502 4.66797 20.0002C4.66797 18.018 5.45435 16.2196 6.73214 14.8998C6.68976 15.2606 6.66797 15.6278 6.66797 16.0001C6.66797 21.1547 10.8466 25.3334 16.0013 25.3334C19.6089 25.3334 22.7385 23.2866 24.2921 20.2908ZM21.1017 21.2692C19.7819 22.547 17.9834 23.3334 16.0013 23.3334C11.9512 23.3334 8.66797 20.0502 8.66797 16.0001C8.66797 14.018 9.45435 12.2195 10.7322 10.8997C10.6898 11.2606 10.668 11.6278 10.668 12.0001C10.668 17.1547 14.8466 21.3334 20.0013 21.3334C20.3736 21.3334 20.7408 21.3116 21.1017 21.2692Z" fill="#4DD6C3"/>
</g>
</svg>
