<svg width="44" height="44" viewBox="0 0 44 44" fill="none" xmlns="http://www.w3.org/2000/svg">
<path fill-rule="evenodd" clip-rule="evenodd" d="M4.35286 5.5C2.96065 5.5 1.83203 6.52601 1.83203 7.79167C1.83203 9.05732 2.96065 10.0833 4.35286 10.0833H39.6445C41.0367 10.0833 42.1654 9.05732 42.1654 7.79167C42.1654 6.52601 41.0367 5.5 39.6445 5.5H4.35286ZM1.83203 22C1.83203 20.7343 2.96065 19.7083 4.35286 19.7083H39.6445C41.0367 19.7083 42.1654 20.7343 42.1654 22C42.1654 23.2657 41.0367 24.2917 39.6445 24.2917H4.35286C2.96065 24.2917 1.83203 23.2657 1.83203 22ZM1.83203 36.2083C1.83203 34.9427 2.96065 33.9167 4.35286 33.9167H39.6445C41.0367 33.9167 42.1654 34.9427 42.1654 36.2083C42.1654 37.474 41.0367 38.5 39.6445 38.5H4.35286C2.96065 38.5 1.83203 37.474 1.83203 36.2083Z" fill="#F8F8FF"/>
</svg>
