<svg width="24" height="25" viewBox="0 0 24 25" fill="none" xmlns="http://www.w3.org/2000/svg">
<g id="openIn">
<path id="OpenIn" fill-rule="evenodd" clip-rule="evenodd" d="M19 8.27417V6.68794L16.7072 8.98075C16.4116 8.36309 15.9109 7.86234 15.2933 7.56669L11.2929 11.5671C10.9024 11.9576 10.9024 12.5908 11.2929 12.9813C11.6834 13.3718 12.3166 13.3718 12.7071 12.9813L16.7076 8.98075C16.895 9.37239 17 9.81102 17 10.2742V18.2742C17 19.931 15.6569 21.2742 14 21.2742H6C4.34315 21.2742 3 19.931 3 18.2742V10.2742C3 8.61732 4.34315 7.27417 6 7.27417H14C14.463 7.27417 14.9016 7.37907 15.2931 7.5664L17.5853 5.27417H16C15.4477 5.27417 15 4.82645 15 4.27417C15 3.72188 15.4477 3.27417 16 3.27417H19.9988H20L20.0028 3.27417C20.5538 3.27567 21 3.72281 21 4.27417V8.27417C21 8.82645 20.5523 9.27417 20 9.27417C19.4477 9.27417 19 8.82645 19 8.27417Z" fill="#F8F8FF"/>
</g>
</svg>
