<svg width="20" height="16" viewBox="0 0 20 16" fill="none" xmlns="http://www.w3.org/2000/svg">
<path fill-rule="evenodd" clip-rule="evenodd" d="M0.330887 1.63778C0.00390625 2.27952 0.00390625 3.1196 0.00390625 4.79976V11.1998C0.00390625 12.8799 0.00390625 13.72 0.330887 14.3617C0.618507 14.9262 1.07745 15.3852 1.64193 15.6728C2.28367 15.9998 3.12375 15.9998 4.80391 15.9998H15.2039C16.8841 15.9998 17.7241 15.9998 18.3659 15.6728C18.9304 15.3852 19.3893 14.9262 19.6769 14.3617C20.0039 13.72 20.0039 12.8799 20.0039 11.1998V4.79976C20.0039 3.1196 20.0039 2.27952 19.6769 1.63778C19.3893 1.0733 18.9304 0.614357 18.3659 0.326736C17.7241 -0.000244141 16.8841 -0.000244141 15.2039 -0.000244141H4.80391C3.12375 -0.000244141 2.28367 -0.000244141 1.64193 0.326736C1.07745 0.614357 0.618507 1.0733 0.330887 1.63778ZM5.56959 4.17514C5.11417 3.86272 4.49171 3.97864 4.17929 4.43407C3.86686 4.88949 3.98279 5.51196 4.43822 5.82438L8.30684 8.47825C9.32947 9.17978 10.6783 9.17978 11.701 8.47825L15.5696 5.82438C16.025 5.51196 16.1409 4.88949 15.8285 4.43407C15.5161 3.97864 14.8936 3.86272 14.4382 4.17514L10.5696 6.82901C10.2287 7.06286 9.77909 7.06286 9.43821 6.82901L5.56959 4.17514Z" fill="#A5D170"/>
</svg>
