<svg width="18" height="18" viewBox="0 0 18 18" fill="none" xmlns="http://www.w3.org/2000/svg">
<path d="M17.4849 16.5175L17.0025 16.9998C15.5125 18.4898 10.0026 18.9999 4.50259 13.4999C-0.99741 7.99994 -0.497508 2.49985 1.00249 0.999847L1.49355 0.508792C2.27442 -0.272082 3.57401 -0.142889 4.18659 0.775956L6.20674 3.80611C6.66949 4.50021 6.57797 5.42445 5.98808 6.01431L4.93954 7.06281C4.67169 7.33065 4.58198 7.72595 4.75681 8.06198C5.07552 8.67455 5.74033 9.73768 7.00259 10.9999C8.26482 12.2622 9.32786 12.9269 9.94038 13.2456C10.2764 13.4205 10.6717 13.3308 10.9395 13.0629L11.988 12.0144C12.5779 11.4245 13.5021 11.333 14.1962 11.7957L17.2162 13.809C18.1403 14.4251 18.2702 15.7321 17.4849 16.5175Z" fill="#A5D170"/>
</svg>
